<svg width="19" height="16" viewBox="0 0 19 16" fill="none" xmlns="http://www.w3.org/2000/svg">
<path d="M15.5 10.8C14.8 10.8 14.3 10.2 14.3 9.6C14.3 8.9 14.9 8.4 15.5 8.4C16.1 8.4 16.7 9 16.7 9.6C16.8 10.2 16.2 10.8 15.5 10.8ZM15.5 6C13.6 6 12 7.6 12 9.5C12 12.1 15.5 16 15.5 16C15.5 16 19 12.1 19 9.5C19 7.6 17.4 6 15.5 6ZM11.9 5.3C11.6 4 10.4 3 9 3C7.3 3 6 4.3 6 6C6 7.7 7.3 9 9 9C9.4 9 9.7 8.9 10 8.8C10.2 7.4 10.9 6.2 11.9 5.3ZM10 10H4C4 9.46957 3.78929 8.96086 3.41421 8.58579C3.03914 8.21071 2.53043 8 2 8V4C2.53043 4 3.03914 3.78929 3.41421 3.41421C3.78929 3.03914 4 2.53043 4 2H14C14 2.53043 14.2107 3.03914 14.5858 3.41421C14.9609 3.78929 15.4696 4 16 4C16 4 17 4 18 4.6V0H0V12H10.5C10.3 11.3 10.1 10.7 10 10Z" fill="#403F3F"/>
</svg>
