<svg width="33" height="11" viewBox="0 0 33 11" fill="none" xmlns="http://www.w3.org/2000/svg">
<path fill-rule="evenodd" clip-rule="evenodd" d="M8.13145 10.2993H5.31666L3.20592 2.24667C3.10573 1.87625 2.89301 1.54878 2.5801 1.39444C1.79921 1.00657 0.938719 0.697887 0 0.542204V0.232178H4.5344C5.16021 0.232178 5.62957 0.697887 5.70779 1.23875L6.80297 7.04737L9.61638 0.232178H12.3529L8.13145 10.2993ZM13.9175 10.2993H11.2591L13.4481 0.232178H16.1064L13.9175 10.2993ZM19.5457 3.02107C19.6239 2.47886 20.0932 2.16884 20.6408 2.16884C21.5013 2.09099 22.4387 2.24668 23.2209 2.6332L23.6903 0.465709C22.908 0.155684 22.0475 0 21.2666 0C18.6865 0 16.8091 1.39444 16.8091 3.32975C16.8091 4.80204 18.1389 5.57509 19.0777 6.0408C20.0932 6.50517 20.4844 6.81519 20.4061 7.27956C20.4061 7.97611 19.6239 8.28614 18.843 8.28614C17.9043 8.28614 16.9655 8.05395 16.1064 7.66609L15.6371 9.83492C16.5758 10.2214 17.5914 10.3771 18.5301 10.3771C21.4231 10.4536 23.2209 9.06053 23.2209 6.96953C23.2209 4.33633 19.5457 4.18199 19.5457 3.02107ZM32.5244 10.2993L30.4137 0.232178H28.1465C27.6771 0.232178 27.2077 0.542204 27.0513 1.00657L23.1427 10.2993H25.8793L26.4255 8.82834H29.7879L30.1008 10.2993H32.5244ZM28.5376 2.94323L29.3185 6.73736H27.1296L28.5376 2.94323Z" fill="#172B85"/>
</svg>
